/* XPM */
static char * close_xpm[] = {
"40 40 689 2",
"  	c None",
". 	c #CC1100",
"+ 	c #D21000",
"@ 	c #D41000",
"# 	c #D20F00",
"$ 	c #D20E00",
"% 	c #D10D00",
"& 	c #CF0B00",
"* 	c #CF0A00",
"= 	c #CD0900",
"- 	c #CC0800",
"; 	c #CB0700",
"> 	c #CA0500",
", 	c #C90400",
"' 	c #C70400",
") 	c #C70200",
"! 	c #C60100",
"~ 	c #C40000",
"{ 	c #C20000",
"] 	c #C10000",
"^ 	c #C00000",
"/ 	c #BF0000",
"( 	c #BE0000",
"_ 	c #BC0000",
": 	c #BB0000",
"< 	c #B60000",
"[ 	c #BD1908",
"} 	c #F13B20",
"| 	c #F38D7F",
"1 	c #F3B2A9",
"2 	c #F2B2A9",
"3 	c #F2B1A8",
"4 	c #F2B0A8",
"5 	c #F1B0A8",
"6 	c #F1AFA6",
"7 	c #F1AEA5",
"8 	c #F0ADA5",
"9 	c #F0ACA4",
"0 	c #EFABA3",
"a 	c #EFABA2",
"b 	c #EFA9A1",
"c 	c #EFA8A1",
"d 	c #EEA8A0",
"e 	c #EEA79F",
"f 	c #EDA69F",
"g 	c #EEA59E",
"h 	c #EEA49D",
"i 	c #EDA49D",
"j 	c #EDA29B",
"k 	c #ECA29B",
"l 	c #ECA19A",
"m 	c #ECA099",
"n 	c #EB9F99",
"o 	c #EB9E98",
"p 	c #E9938D",
"q 	c #DA4844",
"r 	c #BB0604",
"s 	c #C81D09",
"t 	c #F27765",
"u 	c #F1BFB9",
"v 	c #F2C5C0",
"w 	c #F4CDC8",
"x 	c #F4CFCA",
"y 	c #F4CECA",
"z 	c #F4CEC9",
"A 	c #F4CCC7",
"B 	c #F4CBC6",
"C 	c #F4CBC5",
"D 	c #F4CAC5",
"E 	c #F3C9C4",
"F 	c #F3C9C3",
"G 	c #F3C8C3",
"H 	c #F3C8C2",
"I 	c #F3C7C2",
"J 	c #F3C7C1",
"K 	c #F3C6C1",
"L 	c #F3C6C0",
"M 	c #F3C5C0",
"N 	c #F3C5BF",
"O 	c #F3C5BE",
"P 	c #F2C3BD",
"Q 	c #F0BBB4",
"R 	c #EDAEA6",
"S 	c #EA9891",
"T 	c #C51311",
"U 	c #F84627",
"V 	c #EFB7B0",
"W 	c #F0BAB3",
"X 	c #F2C1BB",
"Y 	c #F1BCB5",
"Z 	c #F0B9B2",
"` 	c #F0B8B1",
" .	c #EFB8B0",
"..	c #F0B7AF",
"+.	c #EFB6AF",
"@.	c #EFB5AE",
"#.	c #EFB5AD",
"$.	c #EEB4AC",
"%.	c #EEB3AC",
"&.	c #EEB2AB",
"*.	c #EEB2AA",
"=.	c #EEB0A9",
"-.	c #EEAFA8",
";.	c #EEAFA7",
">.	c #EEAEA6",
",.	c #EDADA5",
"'.	c #EDADA4",
").	c #EDACA3",
"!.	c #EDABA3",
"~.	c #EDABA2",
"{.	c #EFB1A9",
"].	c #EFB4AC",
"^.	c #EAA197",
"/.	c #E6837C",
"(.	c #B50503",
"_.	c #D91C00",
":.	c #EF9284",
"<.	c #EDACA5",
"[.	c #EEAEA5",
"}.	c #EDA9A0",
"|.	c #EDA79F",
"1.	c #ECA69E",
"2.	c #ECA69D",
"3.	c #ECA59C",
"4.	c #ECA49B",
"5.	c #ECA39A",
"6.	c #EBA299",
"7.	c #EBA298",
"8.	c #EBA197",
"9.	c #EBA096",
"0.	c #EB9F95",
"a.	c #EB9E95",
"b.	c #EA9E94",
"c.	c #EA9D93",
"d.	c #EA9C92",
"e.	c #EA9B91",
"f.	c #EA9A90",
"g.	c #E9998F",
"h.	c #E9988E",
"i.	c #E9988D",
"j.	c #E9978C",
"k.	c #E9968C",
"l.	c #E9968B",
"m.	c #E8958A",
"n.	c #E8958B",
"o.	c #CF110F",
"p.	c #D82004",
"q.	c #EAA49B",
"r.	c #EB9E94",
"s.	c #E99C92",
"t.	c #EA9A91",
"u.	c #E99A8F",
"v.	c #E8978D",
"w.	c #E9958B",
"x.	c #E8948A",
"y.	c #E89489",
"z.	c #E89388",
"A.	c #E79287",
"B.	c #E89186",
"C.	c #E79085",
"D.	c #E78F84",
"E.	c #E68E83",
"F.	c #E78E82",
"G.	c #E68C81",
"H.	c #E68C80",
"I.	c #E68B80",
"J.	c #E68A7F",
"K.	c #E68A7E",
"L.	c #E6897D",
"M.	c #E5897D",
"N.	c #E58B7F",
"O.	c #D7322C",
"P.	c #D82107",
"Q.	c #E7988D",
"R.	c #E79388",
"S.	c #E79186",
"T.	c #E68D82",
"U.	c #E68B7F",
"V.	c #E58A7F",
"W.	c #E58A7E",
"X.	c #E5887C",
"Y.	c #E5877B",
"Z.	c #E5867A",
"`.	c #E58579",
" +	c #E48377",
".+	c #E48376",
"++	c #E48275",
"@+	c #E48174",
"#+	c #E48073",
"$+	c #E38073",
"%+	c #E37F72",
"&+	c #E37E71",
"*+	c #E37D70",
"=+	c #E47F72",
"-+	c #D73129",
";+	c #D32006",
">+	c #E38B81",
",+	c #E4877C",
"'+	c #E3867B",
")+	c #E3877C",
"!+	c #E4887D",
"~+	c #E2857A",
"{+	c #E38479",
"]+	c #E07F74",
"^+	c #E18277",
"/+	c #E28176",
"(+	c #E28175",
"_+	c #E18075",
":+	c #E28074",
"<+	c #E17F73",
"[+	c #E17E72",
"}+	c #E17D71",
"|+	c #E07C71",
"1+	c #E07C70",
"2+	c #E07B6F",
"3+	c #DE7669",
"4+	c #DF796D",
"5+	c #DF786C",
"6+	c #DF776B",
"7+	c #DF766A",
"8+	c #DF7669",
"9+	c #DF7568",
"0+	c #DE7366",
"a+	c #DE7164",
"b+	c #DE7265",
"c+	c #D62D25",
"d+	c #CF1F07",
"e+	c #DD7D74",
"f+	c #DD796E",
"g+	c #D86458",
"h+	c #D14739",
"i+	c #CD3A2B",
"j+	c #CD392A",
"k+	c #CD3A2A",
"l+	c #CB392A",
"m+	c #C9473A",
"n+	c #DE9E98",
"o+	c #C1483B",
"p+	c #C43627",
"q+	c #CB3728",
"r+	c #CD3728",
"s+	c #CC3727",
"t+	c #CC3627",
"u+	c #CC3626",
"v+	c #C93526",
"w+	c #C9493B",
"x+	c #D0918B",
"y+	c #BE4033",
"z+	c #C33223",
"A+	c #CA3424",
"B+	c #CC3324",
"C+	c #CC3323",
"D+	c #CB3223",
"E+	c #CD3727",
"F+	c #D24C3E",
"G+	c #D65E52",
"H+	c #D42921",
"I+	c #CA1E07",
"J+	c #D76F65",
"K+	c #C11F11",
"L+	c #BD1000",
"M+	c #BD0F00",
"N+	c #BC0F00",
"O+	c #AF0700",
"P+	c #E8D1CE",
"Q+	c #F0F0F0",
"R+	c #EDE3E3",
"S+	c #9E1205",
"T+	c #B40E00",
"U+	c #BC1000",
"V+	c #BB0F00",
"W+	c #B21305",
"X+	c #C6B5B4",
"Y+	c #B3B4B4",
"Z+	c #BAB0AF",
"`+	c #A2180C",
" @	c #B40F00",
".@	c #BB1000",
"+@	c #BE1505",
"@@	c #D01910",
"#@	c #C7200B",
"$@	c #BA170C",
"%@	c #B70B00",
"&@	c #B80C00",
"*@	c #B70C00",
"=@	c #B60D00",
"-@	c #B31A0F",
";@	c #E7D1CF",
">@	c #F0F3F3",
",@	c #EFEFEF",
"'@	c #F0F1F1",
")@	c #E6D8D7",
"!@	c #9D180E",
"~@	c #AE0B00",
"{@	c #B60C00",
"]@	c #B50D00",
"^@	c #B4241A",
"/@	c #C8B9B8",
"(@	c #ABABAB",
"_@	c #AAABAA",
":@	c #B4A09E",
"<@	c #9D160C",
"[@	c #AF0C00",
"}@	c #CA0B01",
"|@	c #C21D09",
"1@	c #B00900",
"2@	c #B10A01",
"3@	c #AB0200",
"4@	c #D79E9B",
"5@	c #EEEBEA",
"6@	c #99160F",
"7@	c #A90900",
"8@	c #B00A01",
"9@	c #AF0A00",
"0@	c #A70E06",
"a@	c #B3B3B3",
"b@	c #ACACAB",
"c@	c #ACACAC",
"d@	c #ABACAB",
"e@	c #C0AFAE",
"f@	c #9B0300",
"g@	c #B00A00",
"h@	c #C90C02",
"i@	c #BE1C09",
"j@	c #AB0600",
"k@	c #AC0701",
"l@	c #A80600",
"m@	c #AC3E3A",
"n@	c #F2F4F4",
"o@	c #E3D5D4",
"p@	c #910C08",
"q@	c #A10600",
"r@	c #A61813",
"s@	c #C4B5B5",
"t@	c #ADADAC",
"u@	c #BABDBC",
"v@	c #8D3B39",
"w@	c #960400",
"x@	c #A90701",
"y@	c #AB0700",
"z@	c #C80C02",
"A@	c #B91A08",
"B@	c #A40300",
"C@	c #A60401",
"D@	c #A50401",
"E@	c #A40401",
"F@	c #960000",
"G@	c #A6504F",
"H@	c #EFEEEE",
"I@	c #EDEDED",
"J@	c #E1E2E2",
"K@	c #D7D0D0",
"L@	c #952826",
"M@	c #C8BABA",
"N@	c #B5B5B4",
"O@	c #8F4B4A",
"P@	c #800000",
"Q@	c #9C0401",
"R@	c #A40400",
"S@	c #C70B03",
"T@	c #B41808",
"U@	c #9F0100",
"V@	c #A10200",
"W@	c #A00200",
"X@	c #9D0200",
"Y@	c #900100",
"Z@	c #9E4747",
"`@	c #F4F9F9",
" #	c #E1E1E1",
".#	c #D6D6D6",
"+#	c #CBCBCB",
"@#	c #BFBDBD",
"##	c #B5B6B4",
"$#	c #7D3232",
"%#	c #7B0000",
"&#	c #960200",
"*#	c #9E0200",
"=#	c #C50C03",
"-#	c #AF1608",
";#	c #A30203",
">#	c #A40303",
",#	c #A30303",
"'#	c #A10303",
")#	c #8F0000",
"!#	c #A14848",
"~#	c #EBEBEB",
"{#	c #BFBFBF",
"]#	c #8E4A4A",
"^#	c #7F0000",
"/#	c #980303",
"(#	c #A20303",
"_#	c #C80D04",
":#	c #AA1507",
"<#	c #A80404",
"[#	c #A90505",
"}#	c #A80505",
"|#	c #A60505",
"1#	c #A65050",
"2#	c #DADCDC",
"3#	c #B1B0AF",
"4#	c #883E3E",
"5#	c #820101",
"6#	c #9E0505",
"7#	c #A70505",
"8#	c #A80405",
"9#	c #CB0F06",
"0#	c #A61307",
"a#	c #AF0607",
"b#	c #AF0707",
"c#	c #AE0707",
"d#	c #AB0707",
"e#	c #990101",
"f#	c #9E4646",
"g#	c #C0BFBF",
"h#	c #B7BBBA",
"i#	c #8E4C4D",
"j#	c #810101",
"k#	c #A10606",
"l#	c #AC0707",
"m#	c #CD1106",
"n#	c #A11106",
"o#	c #B40809",
"p#	c #B30909",
"q#	c #B40909",
"r#	c #B10808",
"s#	c #AB1A1A",
"t#	c #C9BABA",
"u#	c #AFAFAE",
"v#	c #B8B9B6",
"w#	c #CAC3BF",
"x#	c #951A19",
"y#	c #A90707",
"z#	c #B20909",
"A#	c #B20809",
"B#	c #D11208",
"C#	c #9C0F07",
"D#	c #BA0A0A",
"E#	c #B90A0A",
"F#	c #B80A0A",
"G#	c #B60B0B",
"H#	c #AE0F0F",
"I#	c #C5B5B5",
"J#	c #B9BAB7",
"K#	c #C4C6C1",
"L#	c #D0D2CC",
"M#	c #DCD6D1",
"N#	c #9B0F0F",
"O#	c #B00A0A",
"P#	c #D31409",
"Q#	c #970D05",
"R#	c #BF0D0D",
"S#	c #BE0D0D",
"T#	c #BC0D0D",
"U#	c #B92424",
"V#	c #C9B9B9",
"W#	c #B1B3B2",
"X#	c #D0D2CB",
"Y#	c #DBDED6",
"Z#	c #E7EAE5",
"`#	c #EADBD9",
" $	c #A21717",
".$	c #B40B0B",
"+$	c #BD0D0D",
"@$	c #D61609",
"#$	c #920C05",
"$$	c #C60F0F",
"%$	c #C40F0F",
"&$	c #C30F0F",
"*$	c #C10E0E",
"=$	c #B81313",
"-$	c #CAB9B9",
";$	c #B1AFAE",
">$	c #B08584",
",$	c #C8CAC6",
"'$	c #CFD2CC",
")$	c #E7E9E4",
"!$	c #F4F4F2",
"~$	c #FEFFFF",
"{$	c #FAF5F5",
"]$	c #A71919",
"^$	c #BA0D0D",
"/$	c #C20F0F",
"($	c #C30E0F",
"_$	c #D9170A",
":$	c #8D0904",
"<$	c #CB1112",
"[$	c #C91111",
"}$	c #C71212",
"|$	c #C22424",
"1$	c #C7B6B6",
"2$	c #B2B4B4",
"3$	c #BABCBC",
"4$	c #964343",
"5$	c #8D0606",
"6$	c #AA4847",
"7$	c #DEE3DC",
"8$	c #E7E8E4",
"9$	c #FEFEFE",
"0$	c #FFFFFF",
"a$	c #F2E3E3",
"b$	c #A81414",
"c$	c #BF1010",
"d$	c #C81111",
"e$	c #DC190C",
"f$	c #890803",
"g$	c #D01C1C",
"h$	c #CD1B1B",
"i$	c #C81414",
"j$	c #CB8C8C",
"k$	c #9F5555",
"l$	c #9E1313",
"m$	c #BC1919",
"n$	c #B51212",
"o$	c #BA5D5D",
"p$	c #F3F2F0",
"q$	c #F1DDDD",
"r$	c #B41111",
"s$	c #CC1B1B",
"t$	c #CD1B1C",
"u$	c #DE1E0F",
"v$	c #830502",
"w$	c #D62727",
"x$	c #D32626",
"y$	c #CE2525",
"z$	c #C04848",
"A$	c #ADADAD",
"B$	c #954444",
"C$	c #A31C1C",
"D$	c #C42323",
"E$	c #D02626",
"F$	c #CE2626",
"G$	c #BE2121",
"H$	c #BB5D5D",
"I$	c #9C3C3C",
"J$	c #B82020",
"K$	c #D02525",
"L$	c #E12314",
"M$	c #870703",
"N$	c #DB3333",
"O$	c #D83131",
"P$	c #D63030",
"Q$	c #C72A2A",
"R$	c #BA5959",
"S$	c #B3B1B1",
"T$	c #B9BCBB",
"U$	c #A45E5E",
"V$	c #A82525",
"W$	c #C92D2D",
"X$	c #D53030",
"Y$	c #D73131",
"Z$	c #D43030",
"`$	c #BF2525",
" %	c #BF6464",
".%	c #FDFCFC",
"+%	c #A15555",
"@%	c #A72424",
"#%	c #CC2E2E",
"$%	c #D63131",
"%%	c #D83132",
"&%	c #E42818",
"*%	c #950C03",
"=%	c #DF3E3E",
"-%	c #DD3C3C",
";%	c #DC3C3C",
">%	c #D93B3B",
",%	c #CB3737",
"'%	c #BC5F5F",
")%	c #B9B4B3",
"!%	c #A45656",
"~%	c #AB2D2D",
"{%	c #CE3838",
"]%	c #DA3B3B",
"^%	c #D93A3A",
"/%	c #C73535",
"(%	c #C46F6F",
"_%	c #FCFAFA",
":%	c #9C4747",
"<%	c #AA2C2C",
"[%	c #CD3838",
"}%	c #DC3D3D",
"|%	c #E72C1C",
"1%	c #A31004",
"2%	c #E4494A",
"3%	c #E24747",
"4%	c #E14747",
"5%	c #DE4646",
"6%	c #D13F3F",
"7%	c #C14040",
"8%	c #C03B3B",
"9%	c #D34242",
"0%	c #DF4646",
"a%	c #DD4646",
"b%	c #CE3E3E",
"c%	c #BE3F3F",
"d%	c #BF3B3B",
"e%	c #E14849",
"f%	c #E93221",
"g%	c #B11505",
"h%	c #E85454",
"i%	c #E65252",
"j%	c #E45151",
"k%	c #E25151",
"l%	c #E25050",
"m%	c #E55151",
"n%	c #E75252",
"o%	c #E65253",
"p%	c #EC3625",
"q%	c #BF1A06",
"r%	c #EC5F60",
"s%	c #EB5D5D",
"t%	c #EB5E5F",
"u%	c #EF3B29",
"v%	c #C91D05",
"w%	c #F26A6B",
"x%	c #F16868",
"y%	c #F16A6A",
"z%	c #F23E2B",
"A%	c #CD1D03",
"B%	c #F25F56",
"C%	c #F67474",
"D%	c #F67373",
"E%	c #F67374",
"F%	c #F33012",
"G%	c #F53719",
"H%	c #FA7D7C",
"I%	c #FB7E7E",
"J%	c #FB7E7F",
"K%	c #FC6A62",
"L%	c #B51A09",
"M%	c #B11808",
"N%	c #F7503B",
"O%	c #FE8381",
"P%	c #FF898A",
"Q%	c #FF8989",
"R%	c #FF766D",
"S%	c #E1290D",
"T%	c #E82F12",
"U%	c #F34F3C",
"V%	c #F16258",
"W%	c #EB6057",
"X%	c #E55E56",
"Y%	c #DF5B56",
"Z%	c #D95956",
"`%	c #D35755",
" &	c #D05655",
".&	c #D25755",
"+&	c #D45755",
"@&	c #D65855",
"#&	c #D85956",
"$&	c #DA5A56",
"%&	c #DC5A56",
"&&	c #DE5B56",
"*&	c #E05B56",
"=&	c #E25C56",
"-&	c #E45D56",
";&	c #E65E57",
">&	c #E95F57",
",&	c #EA5F57",
"'&	c #EC6157",
")&	c #EF6158",
"!&	c #F26358",
"~&	c #F56458",
"{&	c #F55E51",
"]&	c #F13C21",
"^&	c #C3200B",
"/&	c #C11701",
"(&	c #B91300",
"_&	c #AD0F00",
":&	c #A10A00",
"<&	c #940600",
"[&	c #880100",
"}&	c #7D0000",
"|&	c #830000",
"1&	c #870100",
"2&	c #8A0200",
"3&	c #8F0400",
"4&	c #930500",
"5&	c #970700",
"6&	c #9B0900",
"7&	c #9F0900",
"8&	c #A30B00",
"9&	c #A70D00",
"0&	c #AB0E00",
"a&	c #AF1000",
"b&	c #B41200",
"c&	c #B71200",
"d&	c #BB1401",
"e&	c #C01601",
"f&	c #C31800",
"                                                                                ",
"                                                                                ",
"            . + @ # $ % & * = - ; > , ' ) ! ~ ~ { ] ^ / ( _ _ : <               ",
"        [ } | 1 2 3 4 5 6 7 8 9 0 a b c d e f g h i j k l m n o p q r           ",
"      s t u v w x y z z w w A B B C D E F F G H I J K L M N O P Q R S T         ",
"      U V W X Y Z `  ...+.@.#.#.$.%.&.*.=.=.-.;.;.>.,.'.).!.~.!.{.].^./.(.      ",
"    _.:.<.[.}.|.1.2.3.4.4.5.6.7.8.9.0.a.b.c.d.e.f.f.g.h.i.j.k.l.m.n.c.m.o.      ",
"    p.q.r.c.c.s.e.t.u.g.h.v.v.l.w.x.y.z.A.B.B.C.D.D.E.F.G.H.I.J.K.L.M.N.O.      ",
"    P.Q.R.A.S.C.C.D.E.T.T.G.I.U.V.W.M.X.X.Y.Z.Z.`. + +.+++@+#+$+%+&+*+=+-+      ",
"    ;+>+,+'+)+!+)+'+~+{+{+]+^+/+(+_+:+<+[+}+|+1+2+3+4+5+5+6+7+8+9+0+a+b+c+      ",
"    d+e+f+g+h+i+i+j+k+l+m+n+o+p+q+r+s+t+t+t+u+v+w+x+y+z+A+B+B+C+D+E+F+G+H+      ",
"    I+J+K+L+M+M+M+M+N+O+P+Q+R+S+T+U+M+M+M+M+V+W+X+Y+Z+`+ @.@M+M+M+M+M++@@@      ",
"    #@$@%@&@&@&@*@=@-@;@>@,@'@)@!@~@{@*@*@]@^@/@Y+(@_@:@<@[@*@&@&@&@&@*@}@      ",
"    |@1@2@2@2@2@2@3@4@Q+Q+Q+Q+Q+5@6@7@8@9@0@/@a@(@b@c@d@e@f@8@2@2@2@2@g@h@      ",
"    i@j@k@k@k@k@k@l@m@n@,@Q+Q+,@Q+o@p@q@r@s@Y+(@(@c@t@u@v@w@x@k@k@k@k@y@z@      ",
"    A@B@C@C@C@C@D@E@F@G@H@,@,@Q+I@J@K@L@M@a@(@b@c@t@N@O@P@Q@D@C@C@C@C@R@S@      ",
"    T@U@V@V@V@V@V@W@X@Y@Z@`@Q+I@ #.#+#@#a@(@(@c@t@##$#%#&#*#W@V@V@V@V@U@=#      ",
"    -#;#>#>#>#>#>#>#,#'#)#!#~# #.#+#{#a@(@(@c@t@u@]#^#/#(#,#>#>#>#>#>#,#_#      ",
"    :#<#[#[#[#[#[#[#[#}#|#/#1#2#+#{#a@(@b@c@t@3#4#5#6#7#[#[#[#[#[#[#[#8#9#      ",
"    0#a#b#b#b#b#b#b#b#b#c#d#e#f#g#a@(@(@c@t@h#i#j#k#l#c#b#b#b#b#b#b#b#c#m#      ",
"    n#o#p#p#p#p#p#p#p#p#q#r#s#t#a@(@b@c@t@u#v#w#x#y#z#p#p#p#p#p#p#p#p#A#B#      ",
"    C#D#E#E#E#E#E#E#E#F#G#H#I#a@(@(@c@t@u#J#K#L#M#N#O#F#E#E#E#E#E#E#E#F#P#      ",
"    Q#R#S#S#S#S#S#S#S#T#U#V#Y+(@(@c@t@W#J#K#X#Y#Z#`# $.$+$S#S#S#S#S#S#+$@$      ",
"    #$$$%$%$%$%$%$&$*$=$-$a@(@b@c@t@;$>$,$'$Y#)$!$~${$]$^$/$%$%$%$%$%$($_$      ",
"    :$<$[$[$[$[$[$}$|$1$2$(@(@c@t@3$4$5$6$7$8$!$9$0$0$a$b$c$d$[$[$[$[$d$e$      ",
"    f$g$h$h$h$h$h$i$j$a@(@b@c@t@N@k$l$m$n$o$p$9$0$0$0$0$q$r$s$h$h$h$h$t$u$      ",
"    v$w$x$x$x$x$x$y$z$A$(@c@t@N@B$C$D$E$F$G$H$0$9$0$9$0$I$J$K$x$x$x$x$x$L$      ",
"    M$N$O$O$O$O$O$P$Q$R$S$b@T$U$V$W$X$Y$Y$Z$`$ %.%0$0$+%@%#%$%O$O$O$O$%%&%      ",
"    *%=%-%-%-%-%-%;%>%,%'%)%!%~%{%]%;%-%-%;%^%/%(%_%:%<%[%]%;%-%-%-%-%}%|%      ",
"    1%2%3%3%3%3%3%3%4%5%6%7%8%9%0%3%3%3%3%3%4%a%b%c%d%9%0%4%3%3%3%3%3%e%f%      ",
"    g%h%i%i%i%i%i%i%i%i%j%k%l%m%n%i%i%i%i%i%i%i%j%l%l%m%i%i%i%i%i%i%i%o%p%      ",
"    q%r%s%s%s%s%s%s%s%s%s%s%s%s%s%s%s%s%s%s%s%s%s%s%s%s%s%s%s%s%s%s%s%t%u%      ",
"    v%w%x%x%x%x%x%x%x%x%x%x%x%x%x%x%x%x%x%x%x%x%x%x%x%x%x%x%x%x%x%x%x%y%z%      ",
"    A%B%C%D%D%D%D%D%D%D%D%D%D%D%D%D%D%D%D%D%D%D%D%D%D%D%D%D%D%D%D%D%D%E%F%      ",
"      G%H%I%I%I%I%I%I%I%I%I%I%I%I%I%I%I%I%I%I%I%I%I%I%I%I%I%I%I%I%I%J%K%L%      ",
"      M%N%O%P%Q%Q%Q%Q%Q%Q%Q%Q%Q%Q%Q%Q%Q%Q%Q%Q%Q%Q%Q%Q%Q%Q%Q%Q%Q%Q%P%R%S%        ",
"          T%U%V%W%X%Y%Z%`% &.&+&@&#&$&%&&&*&=&-&;&>&,&'&)&V%!&~&{&]&^&          ",
"              /&(&_&:&<&[&}&^#|&1&2&3&4&5&6&7&8&9&0&a&b&c&d&e&f&                ",
"                                                                                ",
"                                                                                "};
