/* XPM */
static char * left_xpm[] = {
"40 40 121 2",
"  	c None",
". 	c #80C6E8",
"+ 	c #7BC2E6",
"@ 	c #67B4DE",
"# 	c #68B4DE",
"$ 	c #67B3DE",
"% 	c #71BBE2",
"& 	c #8ACCEB",
"* 	c #66B3DD",
"= 	c #5BABD7",
"- 	c #5FADD9",
"; 	c #5FAED9",
"> 	c #6BB6DE",
", 	c #5CACD8",
"' 	c #5CABD8",
") 	c #75BCE0",
"! 	c #57A7D4",
"~ 	c #5AA9D4",
"{ 	c #59A9D4",
"] 	c #70B9DD",
"^ 	c #55A5D2",
"/ 	c #57A6D2",
"( 	c #7AC0E2",
"_ 	c #59A7D2",
": 	c #56A6D2",
"< 	c #56A5D1",
"[ 	c #75BCDF",
"} 	c #52A2CE",
"| 	c #53A4CE",
"1 	c #53A3CE",
"2 	c #5BA8D1",
"3 	c #52A2CD",
"4 	c #53A2CD",
"5 	c #65B0D5",
"6 	c #4E9FC9",
"7 	c #51A1CB",
"8 	c #51A1CA",
"9 	c #50A1CA",
"0 	c #7BBFE0",
"a 	c #4C9CC8",
"b 	c #4D9DC8",
"c 	c #6EB6D8",
"d 	c #4B9BC5",
"e 	c #4C9CC6",
"f 	c #70B7D8",
"g 	c #4B9CC4",
"h 	c #4B9BC4",
"i 	c #4A9AC3",
"j 	c #499AC2",
"k 	c #56A3C9",
"l 	c #4796BF",
"m 	c #4696BF",
"n 	c #519EC5",
"o 	c #4494BC",
"p 	c #4495BD",
"q 	c #4496BD",
"r 	c #4394BC",
"s 	c #4B99C0",
"t 	c #4091B8",
"u 	c #5FA9CB",
"v 	c #3F90B7",
"w 	c #54A0C4",
"x 	c #3E8EB6",
"y 	c #3E8FB6",
"z 	c #3C8DB4",
"A 	c #67AECE",
"B 	c #3A8BB2",
"C 	c #3B8CB2",
"D 	c #3688B0",
"E 	c #6DB2D1",
"F 	c #398AB1",
"G 	c #3C8CB3",
"H 	c #80C1DC",
"I 	c #3889B0",
"J 	c #3789AF",
"K 	c #3687AE",
"L 	c #3787AE",
"M 	c #3686AD",
"N 	c #4C98BB",
"O 	c #3486AB",
"P 	c #3385AA",
"Q 	c #3082A8",
"R 	c #56A0C1",
"S 	c #3183A8",
"T 	c #3283A9",
"U 	c #6CB2CF",
"V 	c #3082A7",
"W 	c #3182A8",
"X 	c #2F82A7",
"Y 	c #63AAC8",
"Z 	c #2D7FA4",
"` 	c #2E7FA4",
" .	c #2E7FA5",
"..	c #3D8BAE",
"+.	c #65ACC9",
"@.	c #2D7FA3",
"#.	c #2F80A4",
"$.	c #2A7CA0",
"%.	c #2B7DA1",
"&.	c #2A7CA1",
"*.	c #4895B5",
"=.	c #2A7A9D",
"-.	c #2A7A9E",
";.	c #26799D",
">.	c #26789D",
",.	c #2D7EA2",
"'.	c #A4A4A4",
").	c #A2A2A2",
"!.	c #A3A3A3",
"~.	c #A5A3A3",
"{.	c #9BA0A2",
"].	c #949EA3",
"^.	c #929EA2",
"/.	c #929DA2",
"(.	c #919DA2",
"_.	c #8A9BA2",
":.	c #909CA2",
"<.	c #A3A4A4",
"[.	c #A2A2A3",
"}.	c #A2A3A4",
"|.	c #A2A3A3",
"                                                                                ",
"                                                                                ",
"                                                                                ",
"                                                                                ",
"                                        . + @ # # # # # # $ %                   ",
"                                      & * = - - - - - - - ;                     ",
"                                      > = , , , , , , , '                       ",
"                                    ) ! ~ ~ ~ ~ ~ ~ { {                         ",
"                                  ] ^ / / / / / / / / /                         ",
"                                ( _ : : : : : : : : <                           ",
"                              [ } | 1 1 1 1 1 1 1 1                             ",
"                              2 3 4 4 4 4 4 4 4 4                               ",
"                            5 6 7 8 7 7 7 8 7 9                                 ",
"                          0 a b b b b b b b b b                                 ",
"                        c d e e e e e e e e e                                   ",
"                      f g h h h h h h h h h                                     ",
"                      h i i i i i i i i j                                       ",
"                    k l l l l l l l l m                                         ",
"                  n o p p p p p p p p q                                         ",
"                  o r r r r r r r r o s                                         ",
"                    t t t t t t t t t u                                         ",
"                      t t t t t t t t v w                                       ",
"                      x y y y y y y y y z A                                     ",
"                        B B B B B B B B C D E                                   ",
"                          F F F F F F F F F G H                                 ",
"                            I I I I I I I I J C                                 ",
"                              K L L L L L L L M N                               ",
"                              O P P P P P P P P Q R                             ",
"                                S S S S S S S S S T U                           ",
"                                  V W W W W W W W W X Y                         ",
"                                    Z ` ` ` ` ` ` `  ...+.                      ",
"                                      @.@.@.@.@.@.@.@.@.#.                      ",
"                                        $.%.%.%.%.%.%.%.&.*.                    ",
"                                          =.-.-.-.;.;.;.;.>.,.                  ",
"                  '.).'.!.'.!.!.!.!.!.!.~.{.].].].^././.(._.:.                  ",
"          !.'.!.'.!.!.).'.!.!.!.'.'.'.!.!.<.[.}.}.[.|.|.|.[.|.).!.!.            ",
"                            !.'.!.!.!.!.'.'.'.!.!.                              ",
"                                                                                ",
"                                                                                ",
"                                                                                "};
