/* XPM */
static char * maximize_xpm[] = {
"40 40 437 2",
"  	c #FFFFFF",
". 	c #FFFEFE",
"+ 	c #FFDF90",
"@ 	c #FFD646",
"# 	c #FFD946",
"$ 	c #FFDA46",
"% 	c #FFDC46",
"& 	c #FFDD46",
"* 	c #FFDE46",
"= 	c #FFDF46",
"- 	c #FFE146",
"; 	c #FFE246",
"> 	c #FFE346",
", 	c #FFDE3E",
"' 	c #FFF3B8",
") 	c #FFF2B4",
"! 	c #FFDD3F",
"~ 	c #FFE446",
"{ 	c #FFDB46",
"] 	c #FFD746",
"^ 	c #FFD446",
"/ 	c #FFD246",
"( 	c #FFE296",
"_ 	c #FFD266",
": 	c #FFE400",
"< 	c #FFED00",
"[ 	c #FFEC00",
"} 	c #FFEB00",
"| 	c #FFDF00",
"1 	c #FFE87A",
"2 	c #FFE574",
"3 	c #FFDB00",
"4 	c #FFF100",
"5 	c #FFEF00",
"6 	c #FFE700",
"7 	c #FFE000",
"8 	c #FFDC00",
"9 	c #FFD900",
"0 	c #FFD500",
"a 	c #FFDA6E",
"b 	c #FFD066",
"c 	c #FFE500",
"d 	c #FFE47A",
"e 	c #FFE275",
"f 	c #FFD400",
"g 	c #FFE100",
"h 	c #FFDD00",
"i 	c #FFD700",
"j 	c #FFD300",
"k 	c #FFCF00",
"l 	c #FFD76E",
"m 	c #FFCF66",
"n 	c #FFDE00",
"o 	c #FFE177",
"p 	c #FFDF76",
"q 	c #FFD600",
"r 	c #FFD100",
"s 	c #FFCE00",
"t 	c #FFCB00",
"u 	c #FFD66E",
"v 	c #FFCE66",
"w 	c #FFD000",
"x 	c #FFD800",
"y 	c #ECD539",
"z 	c #D7D37F",
"A 	c #D8D47F",
"B 	c #D8D57F",
"C 	c #D9D47F",
"D 	c #D9D6A0",
"E 	c #D9EAFF",
"F 	c #DAEAFE",
"G 	c #D9E9FE",
"H 	c #D9E8FE",
"I 	c #D8E8FE",
"J 	c #D8E7FE",
"K 	c #D7E6FE",
"L 	c #D6E5FE",
"M 	c #D6E4FE",
"N 	c #D5E4FF",
"O 	c #D4CEA2",
"P 	c #D3CF7F",
"Q 	c #D4D07F",
"R 	c #D4CE7F",
"S 	c #D3CD82",
"T 	c #FACC00",
"U 	c #FFCD00",
"V 	c #FFC900",
"W 	c #FFC500",
"X 	c #FFD46E",
"Y 	c #FFCD66",
"Z 	c #E0CF63",
"` 	c #B3CADF",
" .	c #7B98C0",
"..	c #7D9BC1",
"+.	c #7E9BC1",
"@.	c #7E9CC1",
"#.	c #7E9DC1",
"$.	c #819DBE",
"%.	c #839DB4",
"&.	c #859FB6",
"*.	c #87A1B8",
"=.	c #8AA3B9",
"-.	c #8CA4BB",
";.	c #8EA6BD",
">.	c #8FA7BE",
",.	c #91A8C0",
"'.	c #93A9C2",
").	c #93A8C2",
"!.	c #92A7C2",
"~.	c #91A9CD",
"{.	c #91A8D2",
"].	c #90A7D2",
"^.	c #8FA6D2",
"/.	c #94A8C8",
"(.	c #AEC8FA",
"_.	c #C4A825",
":.	c #FFC800",
"<.	c #FFC100",
"[.	c #FFD26E",
"}.	c #FFCB66",
"|.	c #FFCA00",
"1.	c #E5CC54",
"2.	c #BDD0E8",
"3.	c #FFD422",
"4.	c #FFD621",
"5.	c #FFD101",
"6.	c #A8C4FA",
"7.	c #C6A624",
"8.	c #FFC300",
"9.	c #FFBF00",
"0.	c #FFBC00",
"a.	c #FFD16E",
"b.	c #FFCA66",
"c.	c #FFBE00",
"d.	c #E5C854",
"e.	c #BCCEE5",
"f.	c #FDC201",
"g.	c #FFC200",
"h.	c #FFCA1C",
"i.	c #FFFEFA",
"j.	c #FFFEFC",
"k.	c #FFD01D",
"l.	c #FFCC00",
"m.	c #FBC809",
"n.	c #A8C3FB",
"o.	c #C6A324",
"p.	c #FFBA00",
"q.	c #FFB700",
"r.	c #FFCF6E",
"s.	c #FFC966",
"t.	c #FFB800",
"u.	c #FFBD00",
"v.	c #FFB600",
"w.	c #E5BE53",
"x.	c #BBCEE4",
"y.	c #FDBB01",
"z.	c #FFBB00",
"A.	c #FFC81E",
"B.	c #FFFDF9",
"C.	c #FFFDF7",
"D.	c #FFD01F",
"E.	c #FFC700",
"F.	c #FBC409",
"G.	c #A6C2FC",
"H.	c #C79C22",
"I.	c #FFB100",
"J.	c #FFB500",
"K.	c #FFB200",
"L.	c #FFCD6E",
"M.	c #FFC866",
"N.	c #FFB300",
"O.	c #FFAE00",
"P.	c #FFD47F",
"Q.	c #E6D3A3",
"R.	c #B9CDE2",
"S.	c #FDB501",
"T.	c #FFB400",
"U.	c #FFC005",
"V.	c #FFF7DC",
"W.	c #FFF6D8",
"X.	c #FFC704",
"Y.	c #FBBF09",
"Z.	c #A4C2FD",
"`.	c #C7B074",
" +	c #FFD37B",
".+	c #FFA900",
"++	c #FFAC00",
"@+	c #FFCC6E",
"#+	c #FFC666",
"$+	c #FFA600",
"%+	c #FFD07A",
"&+	c #E6F1FF",
"*+	c #B9CBDE",
"=+	c #FDAE00",
"-+	c #FFAD00",
";+	c #FFBB04",
">+	c #FFF8E4",
",+	c #FFF8E2",
"'+	c #FFC104",
")+	c #FBB707",
"!+	c #A3C2FF",
"~+	c #C7CDCE",
"{+	c #FFCE74",
"]+	c #FFA200",
"^+	c #FFCA6E",
"/+	c #FFC25E",
"(+	c #FFCE7A",
"_+	c #E6F1FE",
":+	c #B7CEE8",
"<+	c #FDC857",
"[+	c #FFAA00",
"}+	c #FFA700",
"|+	c #FFA800",
"1+	c #FFB605",
"2+	c #FFF8E6",
"3+	c #FFF7E3",
"4+	c #FFBC03",
"5+	c #FBCA5E",
"6+	c #A2C0FB",
"7+	c #C7CCCC",
"8+	c #FFCB74",
"9+	c #FFC667",
"0+	c #FFECCE",
"a+	c #B7CBE0",
"b+	c #FDFFFF",
"c+	c #FFC751",
"d+	c #FFA100",
"e+	c #FFB106",
"f+	c #FFF7E4",
"g+	c #FFB804",
"h+	c #FFB900",
"i+	c #FFC854",
"j+	c #FBFFFF",
"k+	c #A0BDF5",
"l+	c #FFEDD0",
"m+	c #B4C9DF",
"n+	c #FDFDFD",
"o+	c #FFC851",
"p+	c #FFAF03",
"q+	c #FFF8E7",
"r+	c #FFF7E5",
"s+	c #FFB202",
"t+	c #FFC955",
"u+	c #FBFCFF",
"v+	c #9FBCF4",
"w+	c #C7CDCC",
"x+	c #B3C8DE",
"y+	c #FFF7E8",
"z+	c #FFF7E6",
"A+	c #FBFDFF",
"B+	c #9DBAF3",
"C+	c #C7CDCD",
"D+	c #B2C6DD",
"E+	c #9CB9F2",
"F+	c #C8CDCD",
"G+	c #E6F0FE",
"H+	c #B0C5DB",
"I+	c #FCFDFD",
"J+	c #9DB9F2",
"K+	c #AEC3DA",
"L+	c #E5F0FE",
"M+	c #ACC1D9",
"N+	c #E5EFFE",
"O+	c #AABFD8",
"P+	c #FCFCFD",
"Q+	c #A8BDD7",
"R+	c #E4EFFE",
"S+	c #A6BBD5",
"T+	c #FCFDFC",
"U+	c #FFFCF7",
"V+	c #FFE7B3",
"W+	c #FFE6B1",
"X+	c #FFFCF8",
"Y+	c #E4EEFE",
"Z+	c #A4B9D4",
"`+	c #FCFCFC",
" @	c #FFFDFB",
".@	c #FFBD1B",
"+@	c #FFE9B0",
"@@	c #FFE7AF",
"#@	c #FFD41A",
"$@	c #FFFCF9",
"%@	c #FBFCFE",
"&@	c #9EBBF4",
"*@	c #FFDA9F",
"=@	c #A2B6D2",
"-@	c #FCFBF8",
";@	c #FFBE1B",
">@	c #FFC400",
",@	c #FFEAAE",
"'@	c #FFE8AD",
")@	c #FFD21A",
"!@	c #FBFAF9",
"~@	c #A0BCF4",
"{@	c #FFDBA4",
"]@	c #FFC565",
"^@	c #FFC132",
"/@	c #E3EDFE",
"(@	c #9FB6D8",
"_@	c #FDBF22",
":@	c #FFEBAD",
"<@	c #FFE9AC",
"[@	c #FFE600",
"}@	c #FFE900",
"|@	c #FBD129",
"1@	c #A1C0FF",
"2@	c #FFBE31",
"3@	c #FFD06D",
"4@	c #FFC766",
"5@	c #FFCA31",
"6@	c #E2EBFC",
"7@	c #9DAFC9",
"8@	c #FDCF01",
"9@	c #FFD200",
"0@	c #FFEBAC",
"a@	c #FFEBAB",
"b@	c #FFE300",
"c@	c #FBE509",
"d@	c #A3BFFE",
"e@	c #C7CBCA",
"f@	c #FFBF31",
"g@	c #FFD96E",
"h@	c #FFCE3A",
"i@	c #E2C679",
"j@	c #9AAFCC",
"k@	c #FDD301",
"l@	c #FFF2C8",
"m@	c #FFF2C4",
"n@	c #FBE109",
"o@	c #A4C1FE",
"p@	c #C7AE47",
"q@	c #FFC639",
"r@	c #FFD86E",
"s@	c #E2CF54",
"t@	c #99ADCC",
"u@	c #FDD201",
"v@	c #FFDA5A",
"w@	c #FFD957",
"x@	c #FBDA09",
"y@	c #A6C2FD",
"z@	c #C7B724",
"A@	c #FFDA00",
"B@	c #E2D054",
"C@	c #99ACCC",
"D@	c #FDD101",
"E@	c #FFDA59",
"F@	c #FFD854",
"G@	c #FBD509",
"H@	c #C6B324",
"I@	c #FFCC66",
"J@	c #E0CE59",
"K@	c #A0B1C7",
"L@	c #F0CE2A",
"M@	c #F1CD29",
"N@	c #F1CC29",
"O@	c #F1CB29",
"P@	c #F1C928",
"Q@	c #F1D56E",
"R@	c #F1F7FF",
"S@	c #F1F5FF",
"T@	c #F1D369",
"U@	c #F1C428",
"V@	c #F1C829",
"W@	c #F1C929",
"X@	c #EECD31",
"Y@	c #A9C5FB",
"Z@	c #C6AF24",
"`@	c #D7C967",
" #	c #9EB6DC",
".#	c #A0B5D5",
"+#	c #A0B5D3",
"@#	c #A0B7E1",
"##	c #A0B9E8",
"$#	c #A0B8E4",
"%#	c #A1B9E4",
"&#	c #A1B9E5",
"*#	c #A2B9E5",
"=#	c #A2BAE5",
"-#	c #A3BAE6",
";#	c #A4BBE6",
">#	c #A4BCE7",
",#	c #A5BCE7",
"'#	c #A5BDEB",
")#	c #A6BCE4",
"!#	c #A6B9D8",
"~#	c #A6BAD9",
"{#	c #A4BCE6",
"]#	c #C5AB25",
"^#	c #E1BD13",
"/#	c #E1BC13",
"(#	c #E1BA11",
"_#	c #E1C96A",
":#	c #E1E5E9",
"<#	c #E1E4E4",
"[#	c #E1E4E5",
"}#	c #E2E5E5",
"|#	c #E3E5E6",
"1#	c #E3E6E6",
"2#	c #E4E6E6",
"3#	c #E4E7E6",
"4#	c #E5E7E7",
"5#	c #E5E8E8",
"6#	c #E6E8E8",
"7#	c #E7E9E8",
"8#	c #E7EAED",
"9#	c #E8CD6C",
"0#	c #E8B616",
"a#	c #E8B718",
"b#	c #E8B818",
"c#	c #E6B819",
"d#	c #F2C00C",
"e#	c #FFD538",
"f#	c #FFD037",
"g#	c #FFC600",
"h#	c #FFD633",
"i#	c #FFD131",
"j#	c #FFC000",
"k#	c #FFD264",
"l#	c #FFD932",
"m#	c #FFD82F",
"n#	c #FFD56C",
"o#	c #FFEEC3",
"p#	c #FFE39C",
"q#	c #FFE49C",
"r#	c #FFE59C",
"s#	c #FFE69C",
"t#	c #FFE79C",
"u#	c #FFE89C",
"v#	c #FFE99C",
"w#	c #FFEA9C",
"x#	c #FFEB9C",
"y#	c #FFEC9C",
"z#	c #FFED9B",
"A#	c #FFF6C9",
"B#	c #FFF5C8",
"C#	c #FFED9C",
"D#	c #FFEFC7",
"                                                                                ",
"  .                           .                 .                           .   ",
"    + @ # $ % & * = - ; > , '                     ) ! ~ > - = & { # ] ^ / (     ",
"    _ : < < [ [ [ [ } } | 1                         2 3 4 5 } 6 : 7 8 9 0 a     ",
"    b 8 c c : : : : : 9 d                             e f 6 c g h 3 i j k l     ",
"    m i n n n n h h 9 o                                 p q 7 8 9 0 r s t u     ",
"    v w x i y z A B C D E F F F F F F G G H I J K L M N O P Q R S T U V W X     ",
"    Y t r r Z `  ...+.@.#.$.%.&.*.=.-.;.>.,.'.'.).!.~.{.].^.^./.(._.:.W <.[.    ",
"    }.W |.V 1.2.s k s s s 3.                        4.h h 9 q 5.6.7.8.9.0.a.    ",
"    b.c.8.8.d.e.f.g.g.g.<.g.h.i..             . j.k.x i j k l.m.n.o.c.p.q.r.    ",
"    s.t.u.v.w.x.y.z.z.z.z.z.p.A.B.            C.D.i 0 r s t E.F.G.H.I.J.K.L.    ",
"    M.N.O.P.Q.R.S.T.T.T.T.T.T.U.V.            W.X.r w U V W g.Y.Z.`. +.+++@+    ",
"    #+$+%+  &+*+=+O.O.-+-+O.;+>+.             . ,+'+V :.W <.u.)+!+~+  {+]+^+    ",
"    /+(+    _+:+<+[+}+$+|+1+2+.                 . 3+4+<.9.0.J.5+6+7+    8+9+    ",
"    0+      _+a+b+c+|+d+e+2+.                     . f+g+h+T.i+j+k+7+      l+    ",
"  .         _+m+n+  o+p+q+.                         . r+s+t+  u+v+w+        .   ",
"            _+x+n+.   y+.                             . z+  . A+B+C+            ",
"            _+D+n+                                            A+E+F+            ",
"            G+H+I+                                            A+J+F+            ",
"            G+K+n+                                            A+J+F+            ",
"            L+M+n+                                            A+J+F+            ",
"            N+O+P+                                            A+J+F+            ",
"            N+Q+n+  .                                     .   A+J+F+            ",
"            R+S+T+. U+V+                                W+X+. A+J+F+            ",
"  .   .     Y+Z+`+ @.@<.+@                            @@k #@$@%@&@C+    .   .   ",
"    *@  .   Y+=@-@;@U k >@,@                        '@s < 5 )@!@~@7+  .   {@    ",
"    ]@^@  . /@(@_@k w U l.>@:@                    <@l.c [@}@[ |@1@7+.   2@3@    ",
"    4@x 5@  6@7@8@9@w U t t W 0@                a@|.h n 7 b@c c@d@e@  f@: g@    ",
"    M.i h h@i@j@k@r k U l.t t >@l@            m@>@j q x 3 8 | n@o@p@q@| [ r@    ",
"    s.0 h 9 s@t@u@r k U l.t :.v@                w@E.w 9@0 q 9 x@y@z@| c [@l     ",
"    }.j A@i B@C@D@w s U l.V E@  .             .   F@W l.s r 9@G@n.H@3 n 7 r@    ",
"    I@w i 0 J@K@L@M@N@O@P@Q@R@S@S@S@S@S@S@S@S@S@S@R@T@U@V@W@O@X@Y@Z@0 x A@l     ",
"    Y k f j `@ #.#.#.#+#@###$#$#$#$#%#&#*#=#-#;#>#,#'#)#!#~#~#~#{#]#w r j l     ",
"    m U 9@9@r ^#/#/#(#_#:#<#[#[#[#<#}#|#1#2#3#4#5#6#7#8#9#0#a#b#c#d#|.t s u     ",
"    b l.w k k s U U l.e#  .                         .   f#p.p.u.c.<.8.g#E.u     ",
"    b |.s U U U U l.l.l.h#  .                     .   i#N.I.T.v.t.p.u.j#g.u     ",
"    k#g.W W E.:.:.V |.t U l#  .                 .   m#p.T.T.J.v.v.q.t.t.h+n#    ",
"    o#p#q#r#s#t#u#v#w#x#y#z#A#                    B#z#C#y#x#w#v#t#s#r#q#p#D#    ",
"                                                                                ",
"                                                                                "};
