/* XPM */
static char * right_xpm[] = {
"40 40 103 2",
"  	c None",
". 	c #73BCE3",
"+ 	c #6CB7E0",
"@ 	c #6CB8E1",
"# 	c #6CB7E1",
"$ 	c #77C0E5",
"% 	c #81C6E9",
"& 	c #5EADDA",
"* 	c #5DACDA",
"= 	c #6BB7DF",
"- 	c #7EC4E7",
"; 	c #5DACD9",
"> 	c #5CABD9",
", 	c #69B5DE",
"' 	c #5BAAD6",
") 	c #5AA9D5",
"! 	c #74BCE1",
"~ 	c #58A8D4",
"{ 	c #57A8D4",
"] 	c #71BADF",
"^ 	c #57A7D2",
"/ 	c #59A8D3",
"( 	c #7EC3E4",
"_ 	c #55A5D0",
": 	c #56A5D0",
"< 	c #76BCE0",
"[ 	c #54A3CE",
"} 	c #5FABD3",
"| 	c #7EC2E3",
"1 	c #51A1CC",
"2 	c #4FA0CB",
"3 	c #64AFD5",
"4 	c #4F9FCA",
"5 	c #4E9EC9",
"6 	c #77BDDE",
"7 	c #4E9EC8",
"8 	c #4C9CC7",
"9 	c #6DB6D8",
"0 	c #4C9CC5",
"a 	c #51A0C8",
"b 	c #72B9D9",
"c 	c #4A9BC3",
"d 	c #499BC3",
"e 	c #4E9EC5",
"f 	c #69B2D4",
"g 	c #4898C1",
"h 	c #5CA8CC",
"i 	c #4696BE",
"j 	c #4596BE",
"k 	c #58A3C8",
"l 	c #57A3C7",
"m 	c #4495BD",
"n 	c #5BA6C9",
"o 	c #4293BA",
"p 	c #55A2C5",
"q 	c #4091B8",
"r 	c #4192B9",
"s 	c #65ACCD",
"t 	c #3E8FB6",
"u 	c #3F8FB7",
"v 	c #67AECD",
"w 	c #3A8BB3",
"x 	c #3C8DB4",
"y 	c #77BBD8",
"z 	c #4090B6",
"A 	c #3B8CB3",
"B 	c #3F8FB4",
"C 	c #398AB0",
"D 	c #539EBF",
"E 	c #3689AF",
"F 	c #3789AF",
"G 	c #57A1C1",
"H 	c #3184AA",
"I 	c #3587AC",
"J 	c #3586AC",
"K 	c #6AB0CD",
"L 	c #3284AA",
"M 	c #3384AA",
"N 	c #60A8C7",
"O 	c #3284A9",
"P 	c #3183A8",
"Q 	c #61A9C7",
"R 	c #3E8DB0",
"S 	c #2F81A6",
"T 	c #3687AA",
"U 	c #2D7FA3",
"V 	c #2E80A4",
"W 	c #4D98B8",
"X 	c #2B7DA2",
"Y 	c #2C7EA2",
"Z 	c #3484A7",
"` 	c #287A9E",
" .	c #297B9F",
"..	c #2B7C9F",
"+.	c #2D7C9F",
"@.	c #8C9BA2",
"#.	c #879AA2",
"$.	c #8D9CA3",
"%.	c #8E9CA3",
"&.	c #989FA3",
"*.	c #A6A4A4",
"=.	c #A3A3A3",
"-.	c #A4A4A4",
"                                                                                ",
"                                                                                ",
"                                                                                ",
"                                                                                ",
"                  . + @ @ @ @ @ @ # $ %                                         ",
"                    & & & & & & & & * = -                                       ",
"                      ; ; ; ; ; ; ; ; > ,                                       ",
"                        ' ' ' ' ' ' ' ' ) !                                     ",
"                        ~ ~ ~ ~ ~ ~ ~ ~ ~ { ]                                   ",
"                          ^ ^ ^ ^ ^ ^ ^ ^ ^ / (                                 ",
"                            _ _ _ _ _ _ _ _ _ : <                               ",
"                              [ [ [ [ [ [ [ [ [ } |                             ",
"                                1 1 1 1 1 1 1 1 2 3                             ",
"                                4 4 4 4 4 4 4 4 4 5 6                           ",
"                                  7 7 7 7 7 7 7 7 7 8 9                         ",
"                                    0 0 0 0 0 0 0 0 0 a b                       ",
"                                      c c c c c c c c d e f                     ",
"                                        g g g g g g g g g h                     ",
"                                        i i i i i i i i i j k                   ",
"                                        l m m m m m m m m m m                   ",
"                                        n o o o o o o o o o                     ",
"                                      p q r r r r r r r r                       ",
"                                    s t u u u u u u u t u                       ",
"                                  v w x x x x x x x x x                         ",
"                                y z A A A A A A A A A                           ",
"                                B C C C C C C C C C                             ",
"                              D E F F F F F F F F                               ",
"                            G H I I I I I I I J I                               ",
"                          K L M M M M M M M M M                                 ",
"                        N O P P P P P P P P P                                   ",
"                      Q R S S S S S S S S S                                     ",
"                      T U V V V V V V V V                                       ",
"                    W X Y Y Y Y Y Y X X                                         ",
"                  Z `  . . ...........+.                                        ",
"                  @.#.@.@.@.$.%.%.%.&.*.=.=.=.=.=.-.-.-.-.-.-.                  ",
"          -.-.-.=.-.-.-.-.-.-.-.-.-.-.-.-.-.-.-.-.-.-.-.=.-.-.=.-.-.            ",
"                      -.-.-.-.-.-.-.-.-.-.-.-.-.-.=.-.-.=.                      ",
"                                                                                ",
"                                                                                ",
"                                                                                "};
